<svg width="25" height="28" viewBox="0 0 25 28" fill="none" xmlns="http://www.w3.org/2000/svg">
<g clip-path="url(#clip0_67_1041)">
<path d="M17.627 24.129C17.5561 24.1291 17.4853 24.1337 17.415 24.143C17.1077 23.1103 16.5113 22.1872 15.6962 21.4826C14.881 20.7781 13.8813 20.3215 12.815 20.167V18.682H11.215V20.167C10.148 20.322 9.14769 20.7794 8.33249 21.4851C7.51729 22.1908 6.92128 23.1152 6.61498 24.149C6.30006 24.0982 5.97715 24.1422 5.68726 24.2753C5.39738 24.4084 5.1536 24.6247 4.98691 24.8967C4.82022 25.1686 4.73813 25.484 4.75108 25.8028C4.76403 26.1215 4.87143 26.4292 5.05963 26.6867C5.24783 26.9443 5.50834 27.1401 5.80807 27.2493C6.10779 27.3585 6.43321 27.3761 6.74297 27.2999C7.05274 27.2238 7.33287 27.0572 7.54778 26.8215C7.76269 26.5857 7.90269 26.2915 7.94998 25.976C7.97391 25.8989 7.98606 25.8187 7.98598 25.738C7.98706 24.8086 8.30896 23.908 8.89728 23.1885C9.48561 22.469 10.3043 21.9747 11.215 21.789V24.325C10.9034 24.495 10.6568 24.7632 10.5134 25.0878C10.37 25.4124 10.3379 25.7753 10.4221 26.1201C10.5063 26.4649 10.702 26.7722 10.9788 26.9942C11.2557 27.2163 11.5982 27.3406 11.953 27.3479C12.3078 27.3552 12.6551 27.2451 12.9409 27.0347C13.2266 26.8243 13.4348 26.5253 13.5332 26.1843C13.6315 25.8433 13.6144 25.4794 13.4845 25.1491C13.3546 24.8188 13.1192 24.5407 12.815 24.358V21.79C13.6836 21.9675 14.4695 22.426 15.0515 23.0947C15.6335 23.7635 15.9791 24.6052 16.035 25.49C15.9835 25.8149 16.0328 26.1478 16.1763 26.4438C16.3198 26.7399 16.5506 26.9848 16.8376 27.1456C17.1245 27.3065 17.4539 27.3754 17.7813 27.3433C18.1087 27.3112 18.4184 27.1794 18.6686 26.9659C18.9189 26.7523 19.0976 26.4672 19.1808 26.1489C19.264 25.8306 19.2477 25.4945 19.1339 25.1858C19.0202 24.8771 18.8146 24.6107 18.5448 24.4224C18.275 24.2342 17.954 24.1332 17.625 24.133L17.627 24.129Z" fill="#007C3D"/>
<path d="M23.235 8.50101H21.063C20.8508 8.50101 20.6473 8.58529 20.4973 8.73532C20.3473 8.88535 20.263 9.08884 20.263 9.30101V11.716C20.2625 12.0732 20.1202 12.4155 19.8675 12.6679C19.6147 12.9203 19.2722 13.062 18.915 13.062H5.285C4.92783 13.062 4.58527 12.9203 4.33253 12.6679C4.07979 12.4155 3.93753 12.0732 3.937 11.716V9.30101C3.937 9.08884 3.85272 8.88535 3.70269 8.73532C3.55266 8.58529 3.34917 8.50101 3.137 8.50101H0.800001C0.587828 8.50101 0.384345 8.58529 0.234316 8.73532C0.0842868 8.88535 0 9.08884 0 9.30101C0 9.51318 0.0842868 9.71665 0.234316 9.86668C0.384345 10.0167 0.587828 10.101 0.800001 10.101H2.335V11.716C2.33765 12.4967 2.64962 13.2444 3.20256 13.7955C3.75551 14.3466 4.50434 14.656 5.285 14.656H5.314V14.939C5.314 15.5058 5.53915 16.0493 5.93991 16.4501C6.34068 16.8509 6.88423 17.076 7.451 17.076H16.585C17.1518 17.076 17.6953 16.8509 18.0961 16.4501C18.4969 16.0493 18.722 15.5058 18.722 14.939V14.656H18.914C19.695 14.6552 20.4438 14.3447 20.9963 13.7927C21.5487 13.2406 21.8597 12.492 21.861 11.711V10.096H23.235C23.4472 10.096 23.6507 10.0117 23.8007 9.86169C23.9507 9.71167 24.035 9.50818 24.035 9.29601C24.035 9.08383 23.9507 8.88035 23.8007 8.73032C23.6507 8.58029 23.4472 8.496 23.235 8.496V8.50101Z" fill="#007C3D"/>
<path d="M17.6439 2.936C17.6429 2.15765 17.3332 1.41148 16.7828 0.861103C16.2324 0.310726 15.4863 0.00105826 14.7079 0L9.32492 0C8.54657 0.00105826 7.80039 0.310726 7.25002 0.861103C6.69964 1.41148 6.38997 2.15765 6.38892 2.936V11.459H17.6439V2.936Z" fill="#007C3D"/>
</g>
<defs>
<clipPath id="clip0_67_1041">
<rect width="24.034" height="27.348" fill="white"/>
</clipPath>
</defs>
</svg>
