<svg width="21" height="19" viewBox="0 0 21 19" fill="none" xmlns="http://www.w3.org/2000/svg">
<path d="M19.1291 7.47181L16.6006 0.409851C16.414 -0.111737 15.6875 -0.143247 15.4563 0.360185L13.601 4.3962C13.5528 4.50104 13.4837 4.59495 13.3979 4.67219C13.3121 4.74943 13.2115 4.80839 13.1022 4.84545C12.9929 4.88251 12.8772 4.89691 12.7622 4.88776C12.6471 4.87862 12.5351 4.84612 12.4331 4.79225L7.71779 2.29988C7.21974 2.03658 6.61415 2.36465 6.56266 2.92566L6.07488 8.23675C6.06425 8.35168 6.03031 8.46323 5.97513 8.5646C5.91994 8.66597 5.84468 8.75504 5.75393 8.82635C5.66318 8.89766 5.55885 8.94974 5.44731 8.97938C5.33576 9.00903 5.21935 9.01564 5.10516 8.99879L0.711046 8.34834C0.162492 8.26735 -0.20737 8.8928 0.127612 9.334L4.66196 15.3093L19.1291 7.47181ZM7.376 18.5176L20.3341 11.4976C20.4332 11.444 20.5208 11.3713 20.5918 11.2838C20.6628 11.1963 20.7158 11.0956 20.748 10.9876C20.8128 10.7695 20.7883 10.5345 20.6799 10.3344L19.7823 8.6775L5.31513 16.515L6.21273 18.1719C6.43839 18.5884 6.95945 18.7433 7.376 18.5176Z" fill="#FFB743"/>
</svg>
